<?xml version="1.0" encoding="UTF-8" standalone="no"?>
<!-- Created with Inkscape (http://www.inkscape.org/) -->

<svg
   xmlns:dc="http://purl.org/dc/elements/1.1/"
   xmlns:cc="http://creativecommons.org/ns#"
   xmlns:rdf="http://www.w3.org/1999/02/22-rdf-syntax-ns#"
   xmlns:svg="http://www.w3.org/2000/svg"
   xmlns="http://www.w3.org/2000/svg"
   xmlns:sodipodi="http://sodipodi.sourceforge.net/DTD/sodipodi-0.dtd"
   xmlns:inkscape="http://www.inkscape.org/namespaces/inkscape"
   width="210mm"
   height="297mm"
   viewBox="0 0 210 297"
   version="1.1"
   id="svg8"
   inkscape:version="0.92.5 (2060ec1f9f, 2020-04-08)"
   sodipodi:docname="rpart_annotate.svg">
  <defs
     id="defs2" />
  <sodipodi:namedview
     id="base"
     pagecolor="#ffffff"
     bordercolor="#666666"
     borderopacity="1.0"
     inkscape:pageopacity="0.0"
     inkscape:pageshadow="2"
     inkscape:zoom="0.98994949"
     inkscape:cx="394.22182"
     inkscape:cy="646.56452"
     inkscape:document-units="mm"
     inkscape:current-layer="layer1"
     showgrid="false"
     inkscape:window-width="1874"
     inkscape:window-height="1016"
     inkscape:window-x="46"
     inkscape:window-y="27"
     inkscape:window-maximized="1" />
  <metadata
     id="metadata5">
    <rdf:RDF>
      <cc:Work
         rdf:about="">
        <dc:format>image/svg+xml</dc:format>
        <dc:type
           rdf:resource="http://purl.org/dc/dcmitype/StillImage" />
        <dc:title></dc:title>
      </cc:Work>
    </rdf:RDF>
  </metadata>
  <g
     inkscape:label="Layer 1"
     inkscape:groupmode="layer"
     id="layer1">
    <g
       transform="matrix(0.35277777,0,0,-0.35277777,14.647842,191.87952)"
       inkscape:label="rpart_tree"
       id="g823">
      <g
         id="g825" />
      <g
         id="g827" />
      <g
         id="g829" />
      <g
         id="g831" />
      <g
         id="g833" />
      <g
         id="g835" />
      <g
         id="g837" />
      <g
         id="g839" />
      <g
         id="g841" />
      <g
         id="g843" />
      <g
         id="g845" />
      <g
         id="g847" />
      <g
         id="g849" />
      <g
         id="g851" />
      <g
         id="g853" />
      <g
         id="g855" />
      <g
         id="g857" />
      <g
         id="g859" />
      <g
         id="g861" />
      <g
         id="g863" />
      <g
         id="g865" />
      <g
         id="g867" />
      <g
         id="g869" />
      <g
         id="g871" />
      <g
         id="g873" />
      <g
         id="g875" />
      <g
         id="g877" />
      <g
         id="g879" />
      <g
         id="g881">
        <path
           inkscape:connector-curvature="0"
           id="path883"
           style="fill:none;stroke:#000000;stroke-width:0.75;stroke-linecap:butt;stroke-linejoin:round;stroke-miterlimit:10;stroke-dasharray:none;stroke-opacity:1"
           d="m 89.32,326.04 v 45.92 h 121.55" />
        <path
           inkscape:connector-curvature="0"
           id="path885"
           style="fill:none;stroke:#000000;stroke-width:0.75;stroke-linecap:butt;stroke-linejoin:round;stroke-miterlimit:10;stroke-dasharray:none;stroke-opacity:1"
           d="M 48.81,122.61 V 283.52 H 89.32" />
        <path
           inkscape:connector-curvature="0"
           id="path887"
           style="fill:none;stroke:#000000;stroke-width:0.75;stroke-linecap:butt;stroke-linejoin:round;stroke-miterlimit:10;stroke-dasharray:none;stroke-opacity:1"
           d="M 129.84,122.61 V 283.52 H 89.32" />
        <path
           inkscape:connector-curvature="0"
           id="path889"
           style="fill:none;stroke:#000000;stroke-width:0.75;stroke-linecap:butt;stroke-linejoin:round;stroke-miterlimit:10;stroke-dasharray:none;stroke-opacity:1"
           d="m 332.41,326.04 v 45.92 H 210.87" />
        <path
           inkscape:connector-curvature="0"
           id="path891"
           style="fill:none;stroke:#000000;stroke-width:0.75;stroke-linecap:butt;stroke-linejoin:round;stroke-miterlimit:10;stroke-dasharray:none;stroke-opacity:1"
           d="m 251.38,237.6 v 45.92 h 81.03" />
        <path
           inkscape:connector-curvature="0"
           id="path893"
           style="fill:none;stroke:#000000;stroke-width:0.75;stroke-linecap:butt;stroke-linejoin:round;stroke-miterlimit:10;stroke-dasharray:none;stroke-opacity:1"
           d="m 210.87,122.61 v 72.46 h 40.51" />
        <path
           inkscape:connector-curvature="0"
           id="path895"
           style="fill:none;stroke:#000000;stroke-width:0.75;stroke-linecap:butt;stroke-linejoin:round;stroke-miterlimit:10;stroke-dasharray:none;stroke-opacity:1"
           d="m 291.9,122.61 v 72.46 h -40.52" />
        <path
           inkscape:connector-curvature="0"
           id="path897"
           style="fill:none;stroke:#000000;stroke-width:0.75;stroke-linecap:butt;stroke-linejoin:round;stroke-miterlimit:10;stroke-dasharray:none;stroke-opacity:1"
           d="m 413.44,237.6 v 45.92 h -81.03" />
        <path
           inkscape:connector-curvature="0"
           id="path899"
           style="fill:none;stroke:#000000;stroke-width:0.75;stroke-linecap:butt;stroke-linejoin:round;stroke-miterlimit:10;stroke-dasharray:none;stroke-opacity:1"
           d="m 372.93,122.61 v 72.46 h 40.51" />
        <path
           inkscape:connector-curvature="0"
           id="path901"
           style="fill:none;stroke:#000000;stroke-width:0.75;stroke-linecap:butt;stroke-linejoin:round;stroke-miterlimit:10;stroke-dasharray:none;stroke-opacity:1"
           d="m 453.96,122.61 v 72.46 h -40.52" />
        <path
           inkscape:connector-curvature="0"
           id="path903"
           style="fill:#ffffff;fill-opacity:1;fill-rule:nonzero;stroke:none"
           d="m 182.02,365.07 v 15.51 h 57.69 v -15.51 z" />
        <path
           inkscape:connector-curvature="0"
           id="path905"
           style="fill:#ffffff;fill-opacity:1;fill-rule:nonzero;stroke:none"
           d="m 42.08,276.62 v 15.51 h 94.48 v -15.51 z" />
        <path
           inkscape:connector-curvature="0"
           id="path907"
           style="fill:#ffffff;fill-opacity:1;fill-rule:nonzero;stroke:none"
           d="m 304.06,276.62 v 15.51 h 56.71 v -15.51 z" />
        <path
           inkscape:connector-curvature="0"
           id="path909"
           style="fill:#ffffff;fill-opacity:1;fill-rule:nonzero;stroke:none"
           d="m 219.03,188.18 v 15.51 h 64.7 v -15.51 z" />
        <path
           inkscape:connector-curvature="0"
           id="path911"
           style="fill:#ffffff;fill-opacity:1;fill-rule:nonzero;stroke:none"
           d="m 369.71,188.18 v 15.51 h 87.47 v -15.51 z" />
        <text
           id="text915"
           style="font-variant:normal;font-weight:bold;font-size:12px;font-family:Helvetica;-inkscape-font-specification:Helvetica-Bold;writing-mode:lr-tb;fill:#000000;fill-opacity:1;fill-rule:nonzero;stroke:none"
           transform="matrix(1,0,0,-1,183.02,367.79)">
          <tspan
             id="tspan913"
             sodipodi:role="line"
             y="0"
             x="0 6.6719999 10.668 17.34 21.336 28.667999 35.34 38.675999 45.683998 49.02">status &lt; 2</tspan>
        </text>
        <text
           id="text919"
           style="font-variant:normal;font-weight:bold;font-size:12px;font-family:Helvetica;-inkscape-font-specification:Helvetica-Bold;writing-mode:lr-tb;fill:#000000;fill-opacity:1;fill-rule:nonzero;stroke:none"
           transform="matrix(1,0,0,-1,43.08,279.28)">
          <tspan
             id="tspan917"
             sodipodi:role="line"
             y="0"
             x="0 3.9960001 11.328 14.664 21.096001 27.768 35.099998 41.771999 48.444 55.116001 58.452 65.459999 72.468002 75.804001 82.475998 85.811996">thickness &gt;= 3.6</tspan>
        </text>
        <text
           id="text923"
           style="font-variant:normal;font-weight:bold;font-size:12px;font-family:Helvetica;-inkscape-font-specification:Helvetica-Bold;writing-mode:lr-tb;fill:#000000;fill-opacity:1;fill-rule:nonzero;stroke:none"
           transform="matrix(1,0,0,-1,305.06,280.56)">
          <tspan
             id="tspan921"
             sodipodi:role="line"
             y="0"
             x="0 6.552 14.004 20.676001 24.011999 31.02 38.028 41.363998 48.035999">age &gt;= 53</tspan>
        </text>
        <text
           id="text927"
           style="font-variant:normal;font-weight:bold;font-size:12px;font-family:Helvetica;-inkscape-font-specification:Helvetica-Bold;writing-mode:lr-tb;fill:#000000;fill-opacity:1;fill-rule:nonzero;stroke:none"
           transform="matrix(1,0,0,-1,220.03,190.92)">
          <tspan
             id="tspan925"
             sodipodi:role="line"
             y="0"
             x="0 6.6719999 10.668 17.34 21.336 28.667999 35.34 38.675999 45.683998 52.692001 56.028">status &gt;= 3</tspan>
        </text>
        <text
           id="text931"
           style="font-variant:normal;font-weight:bold;font-size:12px;font-family:Helvetica;-inkscape-font-specification:Helvetica-Bold;writing-mode:lr-tb;fill:#000000;fill-opacity:1;fill-rule:nonzero;stroke:none"
           transform="matrix(1,0,0,-1,370.71,190.83)">
          <tspan
             id="tspan929"
             sodipodi:role="line"
             y="0"
             x="0 3.9960001 11.328 14.664 21.096001 27.768 35.099998 41.771999 48.444 55.116001 58.452 65.459999 68.795998 75.468002 78.804001">thickness &lt; 1.9</tspan>
        </text>
        <path
           inkscape:connector-curvature="0"
           id="path933"
           style="fill:#c6dbef;fill-opacity:1;fill-rule:nonzero;stroke:#000000;stroke-width:0.75;stroke-linecap:round;stroke-linejoin:round;stroke-miterlimit:10;stroke-dasharray:none;stroke-opacity:1"
           d="m 190.53,405.87 0.29,2.23 0.86,2.08 1.37,1.79 1.79,1.36 2.07,0.87 2.23,0.29 h 23.45 l 2.23,-0.29 2.08,-0.87 1.79,-1.36 1.36,-1.79 0.87,-2.08 0.29,-2.23 v -14.4 l -0.29,-2.23 -0.87,-2.08 -1.36,-1.78 -1.79,-1.37 -2.08,-0.86 -2.23,-0.29 h -23.45 l -2.23,0.29 -2.07,0.86 -1.79,1.37 -1.37,1.78 -0.86,2.08 -0.29,2.23 z" />
        <path
           inkscape:connector-curvature="0"
           id="path935"
           style="fill:#eaf3fb;fill-opacity:1;fill-rule:nonzero;stroke:#000000;stroke-width:0.75;stroke-linecap:round;stroke-linejoin:round;stroke-miterlimit:10;stroke-dasharray:none;stroke-opacity:1"
           d="m 70.98,317.43 0.29,2.23 0.87,2.07 1.36,1.79 1.79,1.37 2.08,0.86 2.23,0.29 h 19.45 l 2.23,-0.29 2.08,-0.86 1.78,-1.37 1.37,-1.79 0.86,-2.07 0.3,-2.23 v -14.4 l -0.3,-2.23 -0.86,-2.08 -1.37,-1.79 -1.78,-1.37 -2.08,-0.86 -2.23,-0.29 H 79.6 l -2.23,0.29 -2.08,0.86 -1.79,1.37 -1.36,1.79 -0.87,2.08 -0.29,2.23 z" />
        <path
           inkscape:connector-curvature="0"
           id="path937"
           style="fill:#f7fbff;fill-opacity:1;fill-rule:nonzero;stroke:#000000;stroke-width:0.75;stroke-linecap:round;stroke-linejoin:round;stroke-miterlimit:10;stroke-dasharray:none;stroke-opacity:1"
           d="m 31.8,114 0.3,2.23 0.86,2.08 1.37,1.78 1.78,1.37 2.08,0.86 2.23,0.29 H 57.2 l 2.23,-0.29 2.07,-0.86 1.79,-1.37 1.37,-1.78 0.86,-2.08 0.29,-2.23 V 99.6 L 65.52,97.37 64.66,95.29 63.29,93.51 61.5,92.14 59.43,91.28 57.2,90.98 H 40.42 l -2.23,0.3 -2.08,0.86 -1.78,1.37 -1.37,1.78 -0.86,2.08 -0.3,2.23 z" />
        <path
           inkscape:connector-curvature="0"
           id="path939"
           style="fill:#deebf7;fill-opacity:1;fill-rule:nonzero;stroke:#000000;stroke-width:0.75;stroke-linecap:round;stroke-linejoin:round;stroke-miterlimit:10;stroke-dasharray:none;stroke-opacity:1"
           d="m 111.5,114 0.29,2.23 0.86,2.08 1.37,1.78 1.78,1.37 2.08,0.86 2.23,0.29 h 19.45 l 2.23,-0.29 2.08,-0.86 1.79,-1.37 1.37,-1.78 0.86,-2.08 0.29,-2.23 V 99.6 l -0.29,-2.23 -0.86,-2.08 -1.37,-1.78 -1.79,-1.37 -2.08,-0.86 -2.23,-0.3 h -19.45 l -2.23,0.3 -2.08,0.86 -1.78,1.37 -1.37,1.78 -0.86,2.08 -0.29,2.23 z" />
        <path
           inkscape:connector-curvature="0"
           id="path941"
           style="fill:#9ecae1;fill-opacity:1;fill-rule:nonzero;stroke:#000000;stroke-width:0.75;stroke-linecap:round;stroke-linejoin:round;stroke-miterlimit:10;stroke-dasharray:none;stroke-opacity:1"
           d="m 314.07,317.43 0.3,2.23 0.86,2.07 1.37,1.79 1.78,1.37 2.08,0.86 2.23,0.29 h 19.45 l 2.23,-0.29 2.08,-0.86 1.78,-1.37 1.37,-1.79 0.86,-2.07 0.3,-2.23 v -14.4 l -0.3,-2.23 -0.86,-2.08 -1.37,-1.79 -1.78,-1.37 -2.08,-0.86 -2.23,-0.29 h -19.45 l -2.23,0.29 -2.08,0.86 -1.78,1.37 -1.37,1.79 -0.86,2.08 -0.3,2.23 z" />
        <path
           inkscape:connector-curvature="0"
           id="path943"
           style="fill:#d2e3f3;fill-opacity:1;fill-rule:nonzero;stroke:#000000;stroke-width:0.75;stroke-linecap:round;stroke-linejoin:round;stroke-miterlimit:10;stroke-dasharray:none;stroke-opacity:1"
           d="m 233.04,228.98 0.3,2.23 0.86,2.08 1.37,1.78 1.78,1.37 2.08,0.86 2.23,0.3 h 19.45 l 2.23,-0.3 2.08,-0.86 1.78,-1.37 1.37,-1.78 0.86,-2.08 0.3,-2.23 v -14.4 l -0.3,-2.23 -0.86,-2.08 -1.37,-1.78 -1.78,-1.37 -2.08,-0.86 -2.23,-0.3 h -19.45 l -2.23,0.3 -2.08,0.86 -1.78,1.37 -1.37,1.78 -0.86,2.08 -0.3,2.23 z" />
        <path
           inkscape:connector-curvature="0"
           id="path945"
           style="fill:#f7fbff;fill-opacity:1;fill-rule:nonzero;stroke:#000000;stroke-width:0.75;stroke-linecap:round;stroke-linejoin:round;stroke-miterlimit:10;stroke-dasharray:none;stroke-opacity:1"
           d="m 192.53,114 0.29,2.23 0.86,2.08 1.37,1.78 1.78,1.37 2.08,0.86 2.23,0.29 h 19.45 l 2.23,-0.29 2.08,-0.86 1.79,-1.37 1.37,-1.78 0.86,-2.08 0.29,-2.23 V 99.6 l -0.29,-2.23 -0.86,-2.08 -1.37,-1.78 -1.79,-1.37 -2.08,-0.86 -2.23,-0.3 h -19.45 l -2.23,0.3 -2.08,0.86 -1.78,1.37 -1.37,1.78 -0.86,2.08 -0.29,2.23 z" />
        <path
           inkscape:connector-curvature="0"
           id="path947"
           style="fill:#b2d2e8;fill-opacity:1;fill-rule:nonzero;stroke:#000000;stroke-width:0.75;stroke-linecap:round;stroke-linejoin:round;stroke-miterlimit:10;stroke-dasharray:none;stroke-opacity:1"
           d="m 273.56,114 0.29,2.23 0.86,2.08 1.37,1.78 1.79,1.37 2.07,0.86 2.23,0.29 h 19.46 l 2.23,-0.29 2.07,-0.86 1.79,-1.37 1.37,-1.78 0.86,-2.08 0.29,-2.23 V 99.6 l -0.29,-2.23 -0.86,-2.08 -1.37,-1.78 -1.79,-1.37 -2.07,-0.86 -2.23,-0.3 h -19.46 l -2.23,0.3 -2.07,0.86 -1.79,1.37 -1.37,1.78 -0.86,2.08 -0.29,2.23 z" />
        <path
           inkscape:connector-curvature="0"
           id="path949"
           style="fill:#6baed6;fill-opacity:1;fill-rule:nonzero;stroke:#000000;stroke-width:0.75;stroke-linecap:round;stroke-linejoin:round;stroke-miterlimit:10;stroke-dasharray:none;stroke-opacity:1"
           d="m 395.1,228.98 0.3,2.23 0.86,2.08 1.37,1.78 1.78,1.37 2.08,0.86 2.23,0.3 h 19.45 l 2.23,-0.3 2.08,-0.86 1.78,-1.37 1.37,-1.78 0.86,-2.08 0.3,-2.23 v -14.4 l -0.3,-2.23 -0.86,-2.08 -1.37,-1.78 -1.78,-1.37 -2.08,-0.86 -2.23,-0.3 h -19.45 l -2.23,0.3 -2.08,0.86 -1.78,1.37 -1.37,1.78 -0.86,2.08 -0.3,2.23 z" />
        <path
           inkscape:connector-curvature="0"
           id="path951"
           style="fill:#84bcdb;fill-opacity:1;fill-rule:nonzero;stroke:#000000;stroke-width:0.75;stroke-linecap:round;stroke-linejoin:round;stroke-miterlimit:10;stroke-dasharray:none;stroke-opacity:1"
           d="m 354.59,114 0.29,2.23 0.86,2.08 1.37,1.78 1.79,1.37 2.07,0.86 2.23,0.29 h 19.46 l 2.23,-0.29 2.07,-0.86 1.79,-1.37 1.37,-1.78 0.86,-2.08 0.29,-2.23 V 99.6 l -0.29,-2.23 -0.86,-2.08 -1.37,-1.78 -1.79,-1.37 -2.07,-0.86 -2.23,-0.3 H 363.2 l -2.23,0.3 -2.07,0.86 -1.79,1.37 -1.37,1.78 -0.86,2.08 -0.29,2.23 z" />
        <path
           inkscape:connector-curvature="0"
           id="path953"
           style="fill:#6baed6;fill-opacity:1;fill-rule:nonzero;stroke:#000000;stroke-width:0.75;stroke-linecap:round;stroke-linejoin:round;stroke-miterlimit:10;stroke-dasharray:none;stroke-opacity:1"
           d="m 435.62,114 0.29,2.23 0.86,2.08 1.37,1.78 1.79,1.37 2.07,0.86 2.23,0.29 h 19.46 l 2.23,-0.29 2.07,-0.86 1.79,-1.37 1.37,-1.78 0.86,-2.08 0.29,-2.23 V 99.6 l -0.29,-2.23 -0.86,-2.08 -1.37,-1.78 -1.79,-1.37 -2.07,-0.86 -2.23,-0.3 h -19.46 l -2.23,0.3 -2.07,0.86 -1.79,1.37 -1.37,1.78 -0.86,2.08 -0.29,2.23 z" />
        <text
           id="text957"
           style="font-variant:normal;font-weight:normal;font-size:12px;font-family:Helvetica;-inkscape-font-specification:Helvetica;writing-mode:lr-tb;fill:#000000;fill-opacity:1;fill-rule:nonzero;stroke:none"
           transform="matrix(1,0,0,-1,197.52,401.56)">
          <tspan
             id="tspan955"
             sodipodi:role="line"
             y="0"
             x="0 6.6719999 13.344 20.016001">2153</tspan>
        </text>
        <text
           id="text961"
           style="font-variant:normal;font-weight:normal;font-size:12px;font-family:Helvetica;-inkscape-font-specification:Helvetica;writing-mode:lr-tb;fill:#000000;fill-opacity:1;fill-rule:nonzero;stroke:none"
           transform="matrix(1,0,0,-1,195.53,387.16)">
          <tspan
             id="tspan959"
             sodipodi:role="line"
             y="0"
             x="0 6.6719999 13.344 20.016001">100%</tspan>
        </text>
        <text
           id="text965"
           style="font-variant:normal;font-weight:normal;font-size:12px;font-family:Helvetica;-inkscape-font-specification:Helvetica;writing-mode:lr-tb;fill:#000000;fill-opacity:1;fill-rule:nonzero;stroke:none"
           transform="matrix(1,0,0,-1,75.98,313.12)">
          <tspan
             id="tspan963"
             sodipodi:role="line"
             y="0"
             x="0 6.6719999 13.344 20.016001">1253</tspan>
        </text>
        <text
           id="text969"
           style="font-variant:normal;font-weight:normal;font-size:12px;font-family:Helvetica;-inkscape-font-specification:Helvetica;writing-mode:lr-tb;fill:#000000;fill-opacity:1;fill-rule:nonzero;stroke:none"
           transform="matrix(1,0,0,-1,77.32,298.72)">
          <tspan
             id="tspan967"
             sodipodi:role="line"
             y="0"
             x="0 6.6719999 13.344">28%</tspan>
        </text>
        <text
           id="text973"
           style="font-variant:normal;font-weight:normal;font-size:12px;font-family:Helvetica;-inkscape-font-specification:Helvetica;writing-mode:lr-tb;fill:#000000;fill-opacity:1;fill-rule:nonzero;stroke:none"
           transform="matrix(1,0,0,-1,38.8,109.69)">
          <tspan
             id="tspan971"
             sodipodi:role="line"
             y="0"
             x="0 6.6719999 13.344">766</tspan>
        </text>
        <text
           id="text977"
           style="font-variant:normal;font-weight:normal;font-size:12px;font-family:Helvetica;-inkscape-font-specification:Helvetica;writing-mode:lr-tb;fill:#000000;fill-opacity:1;fill-rule:nonzero;stroke:none"
           transform="matrix(1,0,0,-1,36.8,95.29)">
          <tspan
             id="tspan975"
             sodipodi:role="line"
             y="0"
             x="0 6.6719999 13.344">13%</tspan>
        </text>
        <text
           id="text981"
           style="font-variant:normal;font-weight:normal;font-size:12px;font-family:Helvetica;-inkscape-font-specification:Helvetica;writing-mode:lr-tb;fill:#000000;fill-opacity:1;fill-rule:nonzero;stroke:none"
           transform="matrix(1,0,0,-1,116.49,109.69)">
          <tspan
             id="tspan979"
             sodipodi:role="line"
             y="0"
             x="0 6.6719999 13.344 20.016001">1661</tspan>
        </text>
        <text
           id="text985"
           style="font-variant:normal;font-weight:normal;font-size:12px;font-family:Helvetica;-inkscape-font-specification:Helvetica;writing-mode:lr-tb;fill:#000000;fill-opacity:1;fill-rule:nonzero;stroke:none"
           transform="matrix(1,0,0,-1,117.83,95.29)">
          <tspan
             id="tspan983"
             sodipodi:role="line"
             y="0"
             x="0 6.6719999 13.344">15%</tspan>
        </text>
        <text
           id="text989"
           style="font-variant:normal;font-weight:normal;font-size:12px;font-family:Helvetica;-inkscape-font-specification:Helvetica;writing-mode:lr-tb;fill:#000000;fill-opacity:1;fill-rule:nonzero;stroke:none"
           transform="matrix(1,0,0,-1,319.07,313.12)">
          <tspan
             id="tspan987"
             sodipodi:role="line"
             y="0"
             x="0 6.6719999 13.344 20.016001">2499</tspan>
        </text>
        <text
           id="text993"
           style="font-variant:normal;font-weight:normal;font-size:12px;font-family:Helvetica;-inkscape-font-specification:Helvetica;writing-mode:lr-tb;fill:#000000;fill-opacity:1;fill-rule:nonzero;stroke:none"
           transform="matrix(1,0,0,-1,320.41,298.72)">
          <tspan
             id="tspan991"
             sodipodi:role="line"
             y="0"
             x="0 6.6719999 13.344">72%</tspan>
        </text>
        <text
           id="text997"
           style="font-variant:normal;font-weight:normal;font-size:12px;font-family:Helvetica;-inkscape-font-specification:Helvetica;writing-mode:lr-tb;fill:#000000;fill-opacity:1;fill-rule:nonzero;stroke:none"
           transform="matrix(1,0,0,-1,238.04,224.67)">
          <tspan
             id="tspan995"
             sodipodi:role="line"
             y="0"
             x="0 6.6719999 13.344 20.016001">2131</tspan>
        </text>
        <text
           id="text1001"
           style="font-variant:normal;font-weight:normal;font-size:12px;font-family:Helvetica;-inkscape-font-specification:Helvetica;writing-mode:lr-tb;fill:#000000;fill-opacity:1;fill-rule:nonzero;stroke:none"
           transform="matrix(1,0,0,-1,239.38,210.27)">
          <tspan
             id="tspan999"
             sodipodi:role="line"
             y="0"
             x="0 6.6719999 13.344">38%</tspan>
        </text>
        <text
           id="text1005"
           style="font-variant:normal;font-weight:normal;font-size:12px;font-family:Helvetica;-inkscape-font-specification:Helvetica;writing-mode:lr-tb;fill:#000000;fill-opacity:1;fill-rule:nonzero;stroke:none"
           transform="matrix(1,0,0,-1,197.52,109.69)">
          <tspan
             id="tspan1003"
             sodipodi:role="line"
             y="0"
             x="0 6.6719999 13.344 20.016001">1033</tspan>
        </text>
        <text
           id="text1009"
           style="font-variant:normal;font-weight:normal;font-size:12px;font-family:Helvetica;-inkscape-font-specification:Helvetica;writing-mode:lr-tb;fill:#000000;fill-opacity:1;fill-rule:nonzero;stroke:none"
           transform="matrix(1,0,0,-1,202.2,95.29)">
          <tspan
             id="tspan1007"
             sodipodi:role="line"
             y="0"
             x="0 6.6719999">6%</tspan>
        </text>
        <text
           id="text1013"
           style="font-variant:normal;font-weight:normal;font-size:12px;font-family:Helvetica;-inkscape-font-specification:Helvetica;writing-mode:lr-tb;fill:#000000;fill-opacity:1;fill-rule:nonzero;stroke:none"
           transform="matrix(1,0,0,-1,278.56,109.69)">
          <tspan
             id="tspan1011"
             sodipodi:role="line"
             y="0"
             x="0 6.6719999 13.344 20.016001">2333</tspan>
        </text>
        <text
           id="text1017"
           style="font-variant:normal;font-weight:normal;font-size:12px;font-family:Helvetica;-inkscape-font-specification:Helvetica;writing-mode:lr-tb;fill:#000000;fill-opacity:1;fill-rule:nonzero;stroke:none"
           transform="matrix(1,0,0,-1,279.89,95.29)">
          <tspan
             id="tspan1015"
             sodipodi:role="line"
             y="0"
             x="0 6.6719999 13.344">32%</tspan>
        </text>
        <text
           id="text1021"
           style="font-variant:normal;font-weight:normal;font-size:12px;font-family:Helvetica;-inkscape-font-specification:Helvetica;writing-mode:lr-tb;fill:#000000;fill-opacity:1;fill-rule:nonzero;stroke:none"
           transform="matrix(1,0,0,-1,400.1,224.67)">
          <tspan
             id="tspan1019"
             sodipodi:role="line"
             y="0"
             x="0 6.6719999 13.344 20.016001">2899</tspan>
        </text>
        <text
           id="text1025"
           style="font-variant:normal;font-weight:normal;font-size:12px;font-family:Helvetica;-inkscape-font-specification:Helvetica;writing-mode:lr-tb;fill:#000000;fill-opacity:1;fill-rule:nonzero;stroke:none"
           transform="matrix(1,0,0,-1,401.44,210.27)">
          <tspan
             id="tspan1023"
             sodipodi:role="line"
             y="0"
             x="0 6.6719999 13.344">35%</tspan>
        </text>
        <text
           id="text1029"
           style="font-variant:normal;font-weight:normal;font-size:12px;font-family:Helvetica;-inkscape-font-specification:Helvetica;writing-mode:lr-tb;fill:#000000;fill-opacity:1;fill-rule:nonzero;stroke:none"
           transform="matrix(1,0,0,-1,359.59,109.69)">
          <tspan
             id="tspan1027"
             sodipodi:role="line"
             y="0"
             x="0 6.6719999 13.344 20.016001">2655</tspan>
        </text>
        <text
           id="text1033"
           style="font-variant:normal;font-weight:normal;font-size:12px;font-family:Helvetica;-inkscape-font-specification:Helvetica;writing-mode:lr-tb;fill:#000000;fill-opacity:1;fill-rule:nonzero;stroke:none"
           transform="matrix(1,0,0,-1,360.92,95.29)">
          <tspan
             id="tspan1031"
             sodipodi:role="line"
             y="0"
             x="0 6.6719999 13.344">23%</tspan>
        </text>
        <text
           id="text1037"
           style="font-variant:normal;font-weight:normal;font-size:12px;font-family:Helvetica;-inkscape-font-specification:Helvetica;writing-mode:lr-tb;fill:#000000;fill-opacity:1;fill-rule:nonzero;stroke:none"
           transform="matrix(1,0,0,-1,440.62,109.69)">
          <tspan
             id="tspan1035"
             sodipodi:role="line"
             y="0"
             x="0 6.6719999 13.344 20.016001">3410</tspan>
        </text>
        <text
           id="text1041"
           style="font-variant:normal;font-weight:normal;font-size:12px;font-family:Helvetica;-inkscape-font-specification:Helvetica;writing-mode:lr-tb;fill:#000000;fill-opacity:1;fill-rule:nonzero;stroke:none"
           transform="matrix(1,0,0,-1,441.95,95.29)">
          <tspan
             id="tspan1039"
             sodipodi:role="line"
             y="0"
             x="0 6.6719999 13.344">11%</tspan>
        </text>
        <path
           inkscape:connector-curvature="0"
           id="path1043"
           style="fill:#ffffff;fill-opacity:1;fill-rule:nonzero;stroke:#000000;stroke-width:0.75;stroke-linecap:round;stroke-linejoin:round;stroke-miterlimit:10;stroke-dasharray:none;stroke-opacity:1"
           d="m 152.2,376.81 0.06,0.42 0.16,0.39 0.26,0.33 0.33,0.26 0.39,0.16 0.42,0.06 h 21.13 l 0.42,-0.06 0.39,-0.16 0.33,-0.26 0.26,-0.33 0.16,-0.39 0.05,-0.42 v -9.69 l -0.05,-0.42 -0.16,-0.39 -0.26,-0.34 -0.33,-0.25 -0.39,-0.16 -0.42,-0.06 h -21.13 l -0.42,0.06 -0.39,0.16 -0.33,0.25 -0.26,0.34 -0.16,0.39 -0.06,0.42 z" />
        <path
           inkscape:connector-curvature="0"
           id="path1045"
           style="fill:#ffffff;fill-opacity:1;fill-rule:nonzero;stroke:#000000;stroke-width:0.75;stroke-linecap:round;stroke-linejoin:round;stroke-miterlimit:10;stroke-dasharray:none;stroke-opacity:1"
           d="m 244.72,376.81 0.05,0.42 0.17,0.39 0.25,0.33 0.34,0.26 0.39,0.16 0.41,0.06 h 16.89 l 0.42,-0.06 0.39,-0.16 0.34,-0.26 0.25,-0.33 0.16,-0.39 0.06,-0.42 v -9.69 l -0.06,-0.42 -0.16,-0.39 -0.25,-0.34 -0.34,-0.25 -0.39,-0.16 -0.42,-0.06 h -16.89 l -0.41,0.06 -0.39,0.16 -0.34,0.25 -0.25,0.34 -0.17,0.39 -0.05,0.42 z" />
        <text
           id="text1049"
           style="font-style:oblique;font-variant:normal;font-size:10px;font-family:Helvetica;-inkscape-font-specification:Helvetica-Oblique;writing-mode:lr-tb;fill:#000000;fill-opacity:1;fill-rule:nonzero;stroke:none"
           transform="matrix(1,0,0,-1,155.73,369.27)">
          <tspan
             id="tspan1047"
             sodipodi:role="line"
             y="0"
             x="0 4.8000002 10.36">yes</tspan>
        </text>
        <text
           id="text1053"
           style="font-style:oblique;font-variant:normal;font-size:10px;font-family:Helvetica;-inkscape-font-specification:Helvetica-Oblique;writing-mode:lr-tb;fill:#000000;fill-opacity:1;fill-rule:nonzero;stroke:none"
           transform="matrix(1,0,0,-1,248.21,369.34)">
          <tspan
             id="tspan1051"
             sodipodi:role="line"
             y="0"
             x="0 5.5599999">no</tspan>
        </text>
      </g>
    </g>
    <ellipse
       style="opacity:1;vector-effect:none;fill:none;fill-opacity:1;stroke:#d60505;stroke-width:0.86500001;stroke-linecap:butt;stroke-linejoin:miter;stroke-miterlimit:4;stroke-dasharray:none;stroke-dashoffset:0;stroke-opacity:1"
       id="path1171"
       cx="32.874149"
       cy="155.61441"
       rx="11.759859"
       ry="10.423512" />
    <ellipse
       ry="10.423512"
       rx="11.759859"
       cy="155.61441"
       cx="174.69025"
       id="ellipse1181"
       style="opacity:1;vector-effect:none;fill:none;fill-opacity:1;stroke:#d60505;stroke-width:0.86500001;stroke-linecap:butt;stroke-linejoin:miter;stroke-miterlimit:4;stroke-dasharray:none;stroke-dashoffset:0;stroke-opacity:1" />
    <ellipse
       ry="10.423512"
       rx="11.759859"
       cy="155.61441"
       cx="59.861675"
       id="ellipse1183"
       style="opacity:1;vector-effect:none;fill:none;fill-opacity:1;stroke:#2314c0;stroke-width:0.86500001;stroke-linecap:butt;stroke-linejoin:miter;stroke-miterlimit:4;stroke-dasharray:none;stroke-dashoffset:0;stroke-opacity:1" />
    <ellipse
       style="opacity:1;vector-effect:none;fill:none;fill-opacity:1;stroke:#2314c0;stroke-width:0.86500001;stroke-linecap:butt;stroke-linejoin:miter;stroke-miterlimit:4;stroke-dasharray:none;stroke-dashoffset:0;stroke-opacity:1"
       id="ellipse1185"
       cx="146.64479"
       cy="155.61441"
       rx="11.759859"
       ry="10.423512" />
    <text
       xml:space="preserve"
       style="font-style:normal;font-weight:normal;font-size:1.76388884px;line-height:0.2;font-family:sans-serif;letter-spacing:0px;word-spacing:0px;fill:#000000;fill-opacity:1;stroke:none;stroke-width:0.26458332"
       x="5.0781202"
       y="173.78874"
       id="text1189"><tspan
         sodipodi:role="line"
         id="tspan1187"
         x="5.0781202"
         y="173.78874"
         style="font-size:7.05555534px;stroke-width:0.26458332"><tspan
   style="font-variant-east_asian:normal;opacity:1;vector-effect:none;fill:#d60505;fill-opacity:1;stroke:none;stroke-width:0.86500001;stroke-linecap:butt;stroke-linejoin:miter;stroke-miterlimit:4;stroke-dasharray:none;stroke-dashoffset:0;stroke-opacity:1"
   id="tspan1226">Big</tspan> is lower than <tspan
   style="fill:#2314c0;fill-opacity:1"
   id="tspan1444">small</tspan> </tspan><tspan
         sodipodi:role="line"
         x="5.0781202"
         y="174.14153"
         style="font-size:7.05555534px;stroke-width:0.26458332"
         id="tspan1191" /></text>
    <text
       id="text1238"
       y="173.78874"
       x="123.61148"
       style="font-style:normal;font-weight:normal;font-size:1.76388884px;line-height:0.2;font-family:sans-serif;letter-spacing:0px;word-spacing:0px;fill:#000000;fill-opacity:1;stroke:none;stroke-width:0.26458332"
       xml:space="preserve"><tspan
         style="font-size:7.05555534px;stroke-width:0.26458332"
         y="173.78874"
         x="123.61148"
         id="tspan1234"
         sodipodi:role="line"><tspan
   id="tspan1232"
   style="opacity:1;vector-effect:none;fill:#d60505;fill-opacity:1;stroke:none;stroke-width:0.86500001;stroke-linecap:butt;stroke-linejoin:miter;stroke-miterlimit:4;stroke-dasharray:none;stroke-dashoffset:0;stroke-opacity:1">Big</tspan> is higher than <tspan
   style="fill:#2314c0;fill-opacity:1"
   id="tspan1446">small</tspan> </tspan><tspan
         id="tspan1236"
         style="font-size:7.05555534px;stroke-width:0.26458332"
         y="174.14153"
         x="123.61148"
         sodipodi:role="line" /></text>
  </g>
</svg>
